<?xml version="1.0" encoding="UTF-8" standalone="no"?>
<!DOCTYPE svg PUBLIC "-//W3C//DTD SVG 1.1//EN" "http://www.w3.org/Graphics/SVG/1.1/DTD/svg11.dtd">
<svg width="100%" height="100%" viewBox="0 0 512 512" version="1.1" xmlns="http://www.w3.org/2000/svg" xmlns:xlink="http://www.w3.org/1999/xlink" xml:space="preserve" xmlns:serif="http://www.serif.com/" style="fill-rule:evenodd;clip-rule:evenodd;stroke-linejoin:round;stroke-miterlimit:1.41421;">
    <g>
        <g>
            <g>
                <path d="M274.736,232.229L262.015,287.127L374.348,399.45C383.623,408.725 383.623,423.768 374.348,433.043C365.063,442.328 350.02,442.328 340.745,433.043L256,348.297L247.478,339.775L237.295,381.199C233.89,395.055 219.168,402.731 205.92,397.779L137.022,372.058C124.735,367.477 118.493,353.786 123.084,341.498C127.665,329.2 141.356,322.958 153.643,327.55L197.533,343.933L231.301,212.699L197.017,212.699L157.027,252.688C147.752,261.963 132.71,261.963 123.424,252.688C114.149,243.413 114.149,228.371 123.424,219.085L170.378,172.142C174.835,167.685 180.881,165.178 187.174,165.178L246.395,165.178C240.215,157.141 236.521,147.092 236.521,136.166C236.521,120.391 244.187,106.411 256,97.745C263.893,91.947 273.632,88.521 284.176,88.521C310.485,88.521 331.821,109.847 331.821,136.166C331.821,159.503 315.035,178.91 292.884,183.006L292.832,183.14L325.197,215.495L371.521,215.495C384.645,215.495 395.282,226.132 395.282,239.255C395.282,252.379 384.645,263.005 371.521,263.005L315.355,263.005C309.051,263.005 303.015,260.509 298.558,256.052L274.736,232.229Z" style="fill:rgb(158,199,175);fill-rule:nonzero;"/>
                <path d="M274.736,232.229L262.015,287.127L374.348,399.45C383.623,408.725 383.623,423.768 374.348,433.043C365.063,442.328 350.02,442.328 340.745,433.043L256,348.297L256,97.745C263.893,91.947 273.632,88.521 284.176,88.521C310.485,88.521 331.821,109.847 331.821,136.166C331.821,159.503 315.035,178.91 292.884,183.006L292.832,183.14L325.197,215.495L371.521,215.495C384.645,215.495 395.282,226.132 395.282,239.255C395.282,252.379 384.645,263.005 371.521,263.005L315.355,263.005C309.051,263.005 303.015,260.509 298.558,256.052L274.736,232.229Z" style="fill:rgb(158,199,175);fill-rule:nonzero;"/>
                <path d="M445.304,193.66C439.261,187.617 429.462,187.617 423.418,193.66C417.374,199.702 417.374,209.502 423.418,215.545C437.199,229.327 437.199,251.753 423.418,265.536C417.374,271.58 417.375,281.378 423.418,287.422C429.46,293.466 439.259,293.467 445.304,287.422C471.154,261.57 471.154,219.509 445.304,193.66Z" style="fill:rgb(255,230,185);fill-rule:nonzero;"/>
                <path d="M482.816,170.143C476.773,164.098 466.974,164.1 460.93,170.143C454.886,176.186 454.886,185.985 460.93,192.028C487.742,218.841 487.744,262.237 460.93,289.053C454.886,295.096 454.886,304.895 460.93,310.939C466.974,316.983 476.772,316.983 482.816,310.939C521.725,272.032 521.73,209.054 482.816,170.143Z" style="fill:rgb(255,205,118);fill-rule:nonzero;"/>
                <path d="M88.582,193.66C82.538,187.616 72.74,187.616 66.696,193.66C40.785,219.569 40.783,261.508 66.696,287.422C72.74,293.466 82.538,293.466 88.582,287.422C94.626,281.379 94.626,271.58 88.582,265.536C74.768,251.72 74.766,229.362 88.582,215.545C94.626,209.502 94.626,199.703 88.582,193.66Z" style="fill:rgb(255,205,118);fill-rule:nonzero;"/>
                <path d="M51.069,192.028C57.113,185.986 57.113,176.186 51.069,170.143C45.025,164.099 35.227,164.099 29.183,170.143C-9.726,209.051 -9.729,272.027 29.183,310.939C35.225,316.982 45.024,316.984 51.069,310.939C57.113,304.896 57.113,295.097 51.069,289.053C24.257,262.241 24.254,218.844 51.069,192.028Z" style="fill:rgb(255,230,185);fill-rule:nonzero;"/>
            </g>
        </g>
    </g>
</svg>
