<svg id="Layer_1" data-name="Layer 1" xmlns="http://www.w3.org/2000/svg" viewBox="0 0 591.08 168.61"><defs><style>.cls-1{fill:none;stroke:#000;stroke-miterlimit:10;stroke-width:3px;}.cls-2{fill:#fff;}</style></defs><title>timeline</title><line class="cls-1" x1="26.86" y1="42.12" x2="568.86" y2="42.12"/><circle cx="26.36" cy="42.62" r="13"/><circle cx="241.36" cy="42.62" r="13"/><circle cx="331.36" cy="42.62" r="13"/><circle cx="568.36" cy="42.62" r="13"/><circle class="cls-2" cx="118.36" cy="42.62" r="10.5"/><path d="M696,532a8,8,0,1,1-8,8,8,8,0,0,1,8-8m0-5a13,13,0,1,0,13,13,13,13,0,0,0-13-13Z" transform="translate(-577.64 -497.38)"/><circle class="cls-2" cx="467.36" cy="42.62" r="10.5"/><path d="M1045,532a8,8,0,1,1-8,8,8,8,0,0,1,8-8m0-5a13,13,0,1,0,13,13,13,13,0,0,0-13-13Z" transform="translate(-577.64 -497.38)"/><path d="M590.91,615.49a7.67,7.67,0,0,0,3.53-2c1.57-1.57,1.66-3.32.46-4.52s-2.39-1.11-4.61-.12c-2.63,1.25-4.84,1.45-6.52-.23-1.86-1.86-1.7-4.77.62-7.09a7.66,7.66,0,0,1,3.22-2l.83,1.68a6.76,6.76,0,0,0-2.83,1.7c-1.63,1.63-1.27,3.22-.46,4,1.11,1.11,2.39.94,4.67-.07,2.79-1.24,4.79-1.29,6.54.46s2.07,4.79-.74,7.6a8.68,8.68,0,0,1-3.8,2.28Z" transform="translate(-577.64 -497.38)"/><path d="M593.36,595.58l-3.62,3.62-1.31-1.31,8.82-8.82,1.31,1.31L594.92,594l10.6,10.6L604,606.18Z" transform="translate(-577.64 -497.38)"/><path d="M607.34,595.31l2.51,5-1.59,1.59-7.87-16,1.86-1.86,16,7.85-1.64,1.64-5-2.47Zm2.71-5.11-4.59-2.26c-1-.51-1.93-1-2.79-1.55l0,0c.53.88,1.06,1.8,1.55,2.76l2.28,4.61Z" transform="translate(-577.64 -497.38)"/><path d="M608.23,578.41a22.52,22.52,0,0,1,2.7-3.2c1.64-1.64,3-2.4,4.42-2.47a4.2,4.2,0,0,1,3.2,1.33,4.41,4.41,0,0,1,.79,5.28l0,0c1.24-.6,2.63-.3,4.15.65a26.67,26.67,0,0,0,4.19,2.35L626.14,584a21.61,21.61,0,0,1-3.64-2c-2-1.29-3.25-1.27-4.7.07l-1.45,1.45,5.16,5.16L620,590.16Zm7,3.89,1.57-1.57c1.64-1.64,1.79-3.59.42-5-1.54-1.54-3.32-1.1-5,.51a9.08,9.08,0,0,0-1.38,1.66Z" transform="translate(-577.64 -497.38)"/><path d="M621.31,567.63l-3.62,3.62-1.31-1.31,8.82-8.82,1.31,1.31-3.64,3.64,10.6,10.6-1.56,1.55Z" transform="translate(-577.64 -497.38)"/><path d="M1139.48,593.18l-4.63,4.63,4.29,4.29,5.16-5.16,1.29,1.29-6.7,6.7L1127,593l6.43-6.43,1.29,1.29-4.9,4.9,3.76,3.76,4.63-4.63Z" transform="translate(-577.64 -497.38)"/><path d="M1147.6,596.24l-11.91-11.91,1.68-1.68,9.84,2.21a48.19,48.19,0,0,1,6,1.73l0-.05c-1.73-1.45-3.22-2.86-5.07-4.72l-5-5,1.45-1.45,11.91,11.91-1.55,1.56-9.83-2.26a52.06,52.06,0,0,1-6.2-1.75l0,.07c1.59,1.41,3.06,2.81,5,4.79l5.09,5.09Z" transform="translate(-577.64 -497.38)"/><path d="M1147.47,572.85a31.43,31.43,0,0,1,3-3.52c2.21-2.21,4.29-3.27,6.31-3.34a7.76,7.76,0,0,1,6,2.6,9,9,0,0,1,2.92,6.35c0,2.23-1.24,4.67-3.55,7a36.12,36.12,0,0,1-2.93,2.65Zm12.08,9a13.94,13.94,0,0,0,1.64-1.47c3.29-3.29,3.24-6.91,0-10.13-2.79-2.83-6.17-3-9.42.23a12,12,0,0,0-1.64,2Z" transform="translate(-577.64 -497.38)"/><path d="M631.49,643.93l1.54-1.54L643.65,653l5.09-5.09,1.29,1.29-6.63,6.63Z" transform="translate(-577.64 -497.38)"/><path d="M648.31,642.94c2.14,2.07,4.35,1.59,5.9,0a8.05,8.05,0,0,0,1.93-2.81l1.38.85a9.82,9.82,0,0,1-2.31,3.38c-2.63,2.63-5.94,2.47-8.52-.11s-3.09-6.13-.6-8.62c2.79-2.79,6-1.08,7.56.49a7.58,7.58,0,0,1,.67.78Zm3.45-5.68c-1-1-2.93-2.12-4.68-.37-1.57,1.57-.81,3.71.14,4.91Z" transform="translate(-577.64 -497.38)"/><path d="M665,634.2l-1.2-1-.05,0a4.52,4.52,0,0,1-1.34,3.89,3.44,3.44,0,0,1-5.07.16c-2.07-2.07-1.36-5,2-8.32l-.18-.18a2.49,2.49,0,0,0-3.92,0,6,6,0,0,0-1.59,2.86l-1.38-.67a7.51,7.51,0,0,1,2-3.57c2.62-2.62,5-1.47,6.75.25l3.2,3.2a17.24,17.24,0,0,0,2.19,1.91Zm-4.59-4.13c-1.73,1.66-3.36,3.89-1.7,5.55a2,2,0,0,0,3,0,3,3,0,0,0,.64-3.5,2.43,2.43,0,0,0-.41-.58Z" transform="translate(-577.64 -497.38)"/><path d="M662.58,624.18c-.88-.88-1.63-1.59-2.39-2.24l1.38-1.38,1.5,1.33,0,0a4.44,4.44,0,0,1,1.22-4.44c1.18-1.18,3.73-2.31,6.66.62l5.11,5.11-1.56,1.56-4.93-4.93c-1.38-1.38-3-2-4.51-.55a3.11,3.11,0,0,0-.49,3.68,3,3,0,0,0,.62.83l5.14,5.14-1.56,1.55Z" transform="translate(-577.64 -497.38)"/><path d="M673.24,604l2.46,2.46,2.23-2.23,1.18,1.18-2.23,2.23,4.61,4.61c1.06,1.06,2,1.36,2.83.5a5.17,5.17,0,0,0,.8-1l1.24,1.1a5.53,5.53,0,0,1-1.17,1.59,3,3,0,0,1-2.33,1A4.5,4.5,0,0,1,680,613.8l-4.67-4.67L674,610.46l-1.18-1.18,1.33-1.32-2-2.05Z" transform="translate(-577.64 -497.38)"/><path d="M691.52,599c3.16,3.16,2.35,6.73.28,8.8-2.31,2.32-5.8,2.4-8.5-.3-2.86-2.86-2.67-6.42-.3-8.78S688.9,596.41,691.52,599Zm-6.7,6.87c1.87,1.87,4.37,2.21,5.88.69s1.2-4-.72-5.92c-1.45-1.45-4-2.56-5.85-.72S683.19,604.28,684.82,605.9Z" transform="translate(-577.64 -497.38)"/><path d="M701.22,589.32c3.16,3.16,2.35,6.73.28,8.8-2.32,2.31-5.8,2.4-8.5-.3-2.86-2.86-2.67-6.42-.3-8.78S698.6,586.71,701.22,589.32Zm-6.7,6.88c1.87,1.87,4.37,2.21,5.88.69s1.2-4-.72-5.92c-1.45-1.45-4-2.56-5.85-.72S692.9,594.57,694.52,596.2Z" transform="translate(-577.64 -497.38)"/><path d="M711.44,587.8l-7.37-7.37-1.2,1.2-1.18-1.18,1.2-1.2-.41-.41a5.73,5.73,0,0,1-2-4,4.18,4.18,0,0,1,1.29-2.88,5.2,5.2,0,0,1,1.57-1.08l1,1.41a3.18,3.18,0,0,0-1.18.79c-1.33,1.33-.5,2.83.81,4.14l.46.46,2.07-2.07,1.18,1.18-2.07,2.07,7.37,7.37Z" transform="translate(-577.64 -497.38)"/><path d="M721.18,578.06l-1.2-.95-.05,0a4.52,4.52,0,0,1-1.34,3.89,3.44,3.44,0,0,1-5.07.16c-2.07-2.07-1.36-5,2-8.32l-.18-.18a2.49,2.49,0,0,0-3.92,0,6,6,0,0,0-1.59,2.86l-1.38-.67a7.51,7.51,0,0,1,2.05-3.57c2.62-2.62,5-1.47,6.75.25l3.2,3.2a17.24,17.24,0,0,0,2.19,1.91Zm-4.6-4.14c-1.73,1.66-3.36,3.89-1.7,5.55a2,2,0,0,0,3,0,3,3,0,0,0,.64-3.5,2.43,2.43,0,0,0-.41-.58Z" transform="translate(-577.64 -497.38)"/><path d="M719.08,568.39c-1-1-1.89-1.86-2.74-2.6l1.36-1.36,1.73,1.63.07-.07a3.63,3.63,0,0,1,.49-4.24,2.43,2.43,0,0,1,.5-.39l1.47,1.47a3,3,0,0,0-.58.48,3.08,3.08,0,0,0-.09,4.08,7.15,7.15,0,0,0,.65.8l4.56,4.56L725,574.29Z" transform="translate(-577.64 -497.38)"/><path d="M668.29,645.69l2.46,2.46,2.23-2.23,1.18,1.19-2.23,2.23,4.61,4.61c1.06,1.06,2,1.36,2.83.5a4.69,4.69,0,0,0,.79-1l1.24,1.1a5.53,5.53,0,0,1-1.17,1.59,3,3,0,0,1-2.33,1,4.5,4.5,0,0,1-2.83-1.63l-4.67-4.67-1.33,1.33L667.9,651l1.33-1.33-2.05-2Z" transform="translate(-577.64 -497.38)"/><path d="M686.57,640.74c3.16,3.16,2.35,6.73.28,8.8-2.31,2.32-5.8,2.4-8.5-.3-2.86-2.86-2.67-6.42-.3-8.78S684,638.13,686.57,640.74Zm-6.7,6.88c1.87,1.87,4.37,2.21,5.88.69s1.2-4-.72-5.92c-1.45-1.45-4-2.56-5.85-.72S678.24,646,679.87,647.62Z" transform="translate(-577.64 -497.38)"/><path d="M687.49,626.5,690,629l2.23-2.23,1.19,1.18-2.23,2.23,4.61,4.61c1.06,1.06,2,1.36,2.83.5a4.69,4.69,0,0,0,.79-1l1.24,1.1a5.53,5.53,0,0,1-1.17,1.59,3.08,3.08,0,0,1-2.33,1,4.5,4.5,0,0,1-2.83-1.63l-4.67-4.67L688.29,633l-1.19-1.18,1.33-1.33-2-2.05Z" transform="translate(-577.64 -497.38)"/><path d="M689.93,621l1.55-1.56,5.34,5.34,0,0a4,4,0,0,1,0-2.21,4.52,4.52,0,0,1,1.15-2c1.15-1.15,3.69-2.28,6.65.67l5.09,5.09-1.56,1.56-4.91-4.91c-1.38-1.38-3.06-2-4.53-.57a3.15,3.15,0,0,0-.53,3.64,2.64,2.64,0,0,0,.64.85L704,632l-1.56,1.55Z" transform="translate(-577.64 -497.38)"/><path d="M709.16,618.86c2.14,2.07,4.35,1.59,5.9,0a8.05,8.05,0,0,0,1.93-2.81l1.38.85a9.65,9.65,0,0,1-2.32,3.38c-2.63,2.63-5.94,2.47-8.52-.11s-3.09-6.13-.6-8.63c2.79-2.79,6-1.08,7.56.5a7.58,7.58,0,0,1,.67.78Zm3.45-5.67c-1-1-2.93-2.12-4.68-.37-1.57,1.57-.81,3.71.14,4.91Z" transform="translate(-577.64 -497.38)"/><path d="M712.34,598.57,713.9,597l12.55,12.55-1.55,1.56Z" transform="translate(-577.64 -497.38)"/><path d="M725.93,602.08c2.14,2.07,4.35,1.59,5.9,0a8.05,8.05,0,0,0,1.93-2.81l1.38.85a9.65,9.65,0,0,1-2.32,3.38c-2.63,2.63-5.94,2.47-8.52-.11s-3.09-6.13-.6-8.63c2.79-2.79,6-1.08,7.56.5a7.58,7.58,0,0,1,.67.78Zm3.45-5.67c-1-1-2.93-2.12-4.68-.37-1.57,1.57-.81,3.71.14,4.91Z" transform="translate(-577.64 -497.38)"/><path d="M738.08,597.93l-7.37-7.37-1.2,1.2-1.18-1.18,1.2-1.2-.41-.41a5.73,5.73,0,0,1-2-4,4.23,4.23,0,0,1,1.29-2.88A5.2,5.2,0,0,1,730,581l1,1.41a3.1,3.1,0,0,0-1.18.8c-1.33,1.33-.5,2.83.81,4.14l.46.46,2.07-2.07,1.18,1.19L732.24,589l7.37,7.37Z" transform="translate(-577.64 -497.38)"/><path d="M734.14,579.85l2.46,2.46,2.23-2.23,1.19,1.18-2.23,2.23,4.61,4.61c1.06,1.06,2,1.36,2.83.5a4.69,4.69,0,0,0,.79-1l1.24,1.1a5.53,5.53,0,0,1-1.17,1.59,3.08,3.08,0,0,1-2.33,1,4.5,4.5,0,0,1-2.83-1.63L736.26,585l-1.32,1.33-1.19-1.18,1.33-1.33L733,581.78Z" transform="translate(-577.64 -497.38)"/><path d="M787.25,617.24a7.74,7.74,0,0,0,3.54-2c1.57-1.57,1.66-3.32.46-4.52s-2.38-1.11-4.61-.12c-2.63,1.25-4.84,1.45-6.52-.23-1.86-1.86-1.7-4.77.62-7.09a7.66,7.66,0,0,1,3.22-2l.83,1.68a6.76,6.76,0,0,0-2.83,1.7c-1.63,1.63-1.27,3.22-.46,4,1.11,1.11,2.39.94,4.67-.07,2.79-1.24,4.79-1.29,6.54.46s2.07,4.79-.74,7.6a8.68,8.68,0,0,1-3.8,2.28Z" transform="translate(-577.64 -497.38)"/><path d="M792.24,604.47c-1.1-1.1-2-1.94-2.86-2.72l1.4-1.4,1.54,1.4,0,0a4.73,4.73,0,0,1,1.38-4.7c2.07-2.07,5.37-1.87,8,.72,3.08,3.08,2.72,6.47.71,8.48a4.24,4.24,0,0,1-4,1.29l0,0,4.65,4.65-1.54,1.54Zm3.82.75a5.07,5.07,0,0,0,.71.57,3.4,3.4,0,0,0,4.15-.51c1.64-1.64,1.25-3.94-.71-5.9-1.71-1.71-4.08-2.28-5.73-.64a3.51,3.51,0,0,0-.42,4.28,3.46,3.46,0,0,0,.53.74Z" transform="translate(-577.64 -497.38)"/><path d="M804.93,595.32c2.14,2.07,4.35,1.59,5.9,0a8.05,8.05,0,0,0,1.93-2.81l1.38.85a9.65,9.65,0,0,1-2.32,3.38c-2.63,2.63-5.94,2.47-8.52-.11s-3.09-6.13-.6-8.63c2.79-2.79,6-1.08,7.56.5a7.58,7.58,0,0,1,.67.78Zm3.45-5.68c-1-1-2.93-2.12-4.68-.37-1.57,1.57-.81,3.71.14,4.91Z" transform="translate(-577.64 -497.38)"/><path d="M813.79,586.46c2.14,2.07,4.35,1.59,5.9,0a8.05,8.05,0,0,0,1.93-2.81l1.38.85a10.06,10.06,0,0,1-2.31,3.38c-2.63,2.63-5.94,2.47-8.52-.11s-3.09-6.13-.6-8.63c2.79-2.79,6-1.08,7.56.5a7.58,7.58,0,0,1,.67.78Zm3.44-5.67c-1-1-2.93-2.12-4.68-.37-1.57,1.57-.81,3.71.14,4.91Z" transform="translate(-577.64 -497.38)"/><path d="M820.61,562.53,831,572.87c.76.76,1.64,1.61,2.28,2.14l-1.4,1.4L830.27,575l0,0a4.47,4.47,0,0,1-1.24,4.6c-2.07,2.07-5.41,1.91-8-.69-2.86-2.83-2.84-6.34-.76-8.43a4,4,0,0,1,3.89-1.27l0,0L819,564.1Zm5.92,9a4,4,0,0,0-.72-.58,3.25,3.25,0,0,0-4,.44c-1.61,1.61-1.15,4,.74,5.87,1.73,1.73,4,2.32,5.69.64a3.29,3.29,0,0,0,.42-4.13,3.42,3.42,0,0,0-.6-.74Z" transform="translate(-577.64 -497.38)"/><path d="M839.15,601.19c.88.88,1.68,1.64,2.4,2.26l-1.38,1.38-1.49-1.31,0,0A4.56,4.56,0,0,1,837.4,608c-1.34,1.34-3.69,2.21-6.7-.8l-5-5,1.55-1.56,4.74,4.74c1.63,1.63,3.22,2.23,4.63.81a3.19,3.19,0,0,0,.64-3.46,3.31,3.31,0,0,0-.65-.94l-5.25-5.25,1.56-1.56Z" transform="translate(-577.64 -497.38)"/><path d="M838.31,595.18c-1.1-1.1-2-1.94-2.86-2.72l1.4-1.4,1.54,1.4,0,0a4.73,4.73,0,0,1,1.38-4.7c2.07-2.07,5.37-1.87,8,.72,3.07,3.08,2.72,6.47.71,8.48a4.24,4.24,0,0,1-4,1.29l0,0,4.65,4.65-1.54,1.54Zm3.81.74a5.07,5.07,0,0,0,.71.57A3.39,3.39,0,0,0,847,596c1.64-1.64,1.25-3.94-.71-5.9-1.71-1.71-4.08-2.28-5.73-.64a3.51,3.51,0,0,0-.42,4.28,3.46,3.46,0,0,0,.53.74Z" transform="translate(-577.64 -497.38)"/><path d="M867.15,620.58a31.43,31.43,0,0,1,3-3.52c2.21-2.21,4.29-3.27,6.31-3.34a7.76,7.76,0,0,1,6,2.6,9,9,0,0,1,2.92,6.34c0,2.23-1.24,4.67-3.55,7a36.12,36.12,0,0,1-2.93,2.65Zm12.07,9a13.94,13.94,0,0,0,1.64-1.47c3.29-3.29,3.23-6.91,0-10.13-2.79-2.83-6.17-3-9.42.23a11.61,11.61,0,0,0-1.64,2Z" transform="translate(-577.64 -497.38)"/><path d="M881.4,607.93a1.36,1.36,0,0,1-1.93,1.92,1.33,1.33,0,0,1,0-1.94A1.31,1.31,0,0,1,881.4,607.93Zm9.22,12.69-8.55-8.55,1.55-1.56,8.55,8.55Z" transform="translate(-577.64 -497.38)"/><path d="M900,611.2l-7.37-7.37-3.59,3.59,7.37,7.37-1.54,1.54L887.54,609l-1.2,1.2L885.16,609l1.2-1.2-.28-.28a5.72,5.72,0,0,1-2-3.87,4.14,4.14,0,0,1,1.36-3,3.72,3.72,0,0,1,1.52-.92l.83,1.47a3,3,0,0,0-1.13.71c-1.22,1.22-.51,2.6.83,3.94l.37.37,3.59-3.59-.41-.41a5.74,5.74,0,0,1-2-4,4.16,4.16,0,0,1,1.27-2.86,5.07,5.07,0,0,1,1.57-1.08l1,1.4a3.4,3.4,0,0,0-1.2.81c-1.31,1.31-.5,2.83.81,4.14l.46.46,2.07-2.07,1.18,1.18-2,2,7.37,7.37Z" transform="translate(-577.64 -497.38)"/><path d="M901.71,601.54c2.14,2.07,4.35,1.59,5.9,0a8.05,8.05,0,0,0,1.93-2.81l1.38.85a9.82,9.82,0,0,1-2.31,3.38c-2.63,2.63-5.94,2.47-8.52-.11s-3.09-6.13-.6-8.63c2.79-2.79,6-1.08,7.56.5a7.58,7.58,0,0,1,.67.78Zm3.44-5.67c-1-1-2.93-2.12-4.68-.37-1.57,1.57-.81,3.71.14,4.91Z" transform="translate(-577.64 -497.38)"/><path d="M907.81,591.66c-1-1-1.89-1.86-2.74-2.6l1.36-1.36,1.73,1.63.07-.07a3.63,3.63,0,0,1,.49-4.24,2.43,2.43,0,0,1,.5-.39l1.47,1.47a3.33,3.33,0,0,0-.58.48,3.08,3.08,0,0,0-.09,4.08,7.15,7.15,0,0,0,.65.8l4.56,4.56-1.54,1.54Z" transform="translate(-577.64 -497.38)"/><path d="M916.17,587.08c2.14,2.07,4.35,1.59,5.9,0a8.05,8.05,0,0,0,1.93-2.81l1.38.85a9.91,9.91,0,0,1-2.31,3.38c-2.63,2.63-5.94,2.47-8.52-.11s-3.09-6.13-.6-8.63c2.79-2.79,6-1.08,7.56.49a7.58,7.58,0,0,1,.67.78Zm3.44-5.67c-1-1-2.93-2.12-4.68-.37-1.57,1.57-.81,3.71.14,4.91Z" transform="translate(-577.64 -497.38)"/><path d="M921.91,576.85c-.88-.88-1.63-1.59-2.39-2.25l1.38-1.38,1.5,1.33,0,0a4.44,4.44,0,0,1,1.22-4.44c1.18-1.18,3.73-2.31,6.66.62l5.11,5.11-1.56,1.56-4.93-4.93c-1.38-1.38-3-2-4.51-.55a3.14,3.14,0,0,0-.49,3.68,2.85,2.85,0,0,0,.62.83l5.14,5.14-1.55,1.55Z" transform="translate(-577.64 -497.38)"/><path d="M928.75,560.46l2.46,2.46,2.23-2.23,1.18,1.18-2.23,2.23,4.61,4.61c1.06,1.06,2,1.36,2.83.5a4.69,4.69,0,0,0,.79-1l1.24,1.1a5.53,5.53,0,0,1-1.17,1.59,3.08,3.08,0,0,1-2.33,1,4.5,4.5,0,0,1-2.83-1.63l-4.67-4.67-1.33,1.32-1.18-1.18,1.33-1.33-2-2Z" transform="translate(-577.64 -497.38)"/><path d="M912.35,623.18c-.88-.88-1.63-1.59-2.39-2.24l1.36-1.36,1.45,1.31.05,0a4.17,4.17,0,0,1,1.11-4.26,3.59,3.59,0,0,1,4.14-.71l0,0a5,5,0,0,1-.16-2.07,4.12,4.12,0,0,1,1.29-2.49c1.13-1.13,3.55-2.07,6.52.9l5,5-1.52,1.52-4.84-4.84c-1.64-1.64-3.23-2-4.49-.78a2.84,2.84,0,0,0-.42,3.25,3.63,3.63,0,0,0,.65.9l5.29,5.29L924,624.07l-5.13-5.13c-1.36-1.36-3-1.75-4.14-.57a3,3,0,0,0-.37,3.48,2.84,2.84,0,0,0,.64.88l5.16,5.16-1.52,1.52Z" transform="translate(-577.64 -497.38)"/><path d="M938.16,605.19c.88.88,1.68,1.64,2.4,2.26l-1.38,1.38-1.49-1.31,0,0a4.56,4.56,0,0,1-1.24,4.42c-1.34,1.34-3.69,2.21-6.7-.8l-5-5,1.55-1.56,4.74,4.74c1.63,1.63,3.22,2.23,4.63.81a3.19,3.19,0,0,0,.64-3.46,3.31,3.31,0,0,0-.65-.94l-5.25-5.25,1.56-1.56Z" transform="translate(-577.64 -497.38)"/><path d="M941.27,603.56a5.76,5.76,0,0,0,2.67-1.43c1.13-1.13,1.1-2.23.39-2.93s-1.59-.71-3.16,0c-2.08,1-3.66.87-4.68-.16-1.38-1.38-1.4-3.62.44-5.46a6,6,0,0,1,2.63-1.57l.74,1.52a4.66,4.66,0,0,0-2.24,1.25,1.77,1.77,0,0,0-.27,2.6c.71.71,1.54.51,3.08-.18,2-.92,3.55-.94,4.83.34,1.5,1.5,1.4,3.73-.64,5.76a6.89,6.89,0,0,1-3,1.82Z" transform="translate(-577.64 -497.38)"/><path d="M940.84,585.25a1.36,1.36,0,0,1-1.93,1.92,1.33,1.33,0,0,1,0-1.94A1.3,1.3,0,0,1,940.84,585.25Zm9.23,12.69-8.55-8.55,1.55-1.55,8.55,8.55Z" transform="translate(-577.64 -497.38)"/><path d="M960,587.38a8,8,0,0,1-2,3c-2.58,2.58-6,2.51-8.63-.11a6.15,6.15,0,0,1,.05-9.14,7.27,7.27,0,0,1,2.6-1.71l.85,1.56a5.14,5.14,0,0,0-2.21,1.4c-2,2-1.57,4.47.21,6.26,2,2,4.47,1.93,6.17.23a6.37,6.37,0,0,0,1.49-2.33Z" transform="translate(-577.64 -497.38)"/><path d="M1000.12,647.11l-14.93-8.89,1.63-1.63,7.44,4.61c1.84,1.13,3.64,2.3,5,3.23l0,0c-1-1.38-2-3.16-3.16-5.11l-4.42-7.6,1.61-1.61,7.49,4.59c1.75,1.08,3.48,2.17,4.91,3.25l0,0c-1.06-1.56-2-3.22-3.16-5.07l-4.44-7.58,1.57-1.57,8.54,15.29-1.61,1.61-7.71-4.7a53.16,53.16,0,0,1-4.67-3.11l0,0a54.61,54.61,0,0,1,3,4.81l4.51,7.9Z" transform="translate(-577.64 -497.38)"/><path d="M1006.92,628.55c-1-1-1.89-1.86-2.74-2.6l1.36-1.36,1.73,1.63.07-.07a3.63,3.63,0,0,1,.49-4.24,2.43,2.43,0,0,1,.5-.39l1.47,1.47a3,3,0,0,0-.58.48,3.08,3.08,0,0,0-.09,4.08,7.15,7.15,0,0,0,.65.8l4.56,4.56-1.54,1.54Z" transform="translate(-577.64 -497.38)"/><path d="M1021.8,616.74c3.16,3.16,2.35,6.73.28,8.8-2.32,2.32-5.8,2.4-8.5-.3-2.86-2.86-2.67-6.42-.3-8.78S1019.18,614.13,1021.8,616.74Zm-6.7,6.88c1.87,1.87,4.37,2.21,5.88.69s1.2-4-.72-5.92c-1.45-1.45-4-2.56-5.85-.72S1013.47,622,1015.1,623.62Z" transform="translate(-577.64 -497.38)"/><path d="M1021.87,612.89c-.88-.88-1.63-1.59-2.39-2.24l1.38-1.38,1.5,1.33,0,0a4.46,4.46,0,0,1,1.22-4.44c1.18-1.18,3.73-2.32,6.66.62l5.11,5.11-1.55,1.56-4.93-4.93c-1.38-1.38-3-2-4.51-.55a3.22,3.22,0,0,0,.12,4.51l5.14,5.14-1.56,1.56Z" transform="translate(-577.64 -497.38)"/><path d="M1036.74,593.39c.58.65,1.24,1.38,2.28,2.42l5,5c2,2,2.78,3.55,2.69,5.13a6.39,6.39,0,0,1-2.08,4.13,7.78,7.78,0,0,1-3.55,2.14l-.8-1.57a6.8,6.8,0,0,0,3.18-1.84c1.59-1.59,1.93-3.59-.23-5.74l-1-1,0,0a4.3,4.3,0,0,1-1.29,4.15c-2.12,2.12-5.44,1.84-7.81-.53-2.9-2.9-2.65-6.43-.69-8.39a4,4,0,0,1,4.15-1.18l0,0-1.22-1.36Zm1.76,5a3.11,3.11,0,0,0-.79-.62,3.17,3.17,0,0,0-3.82.53c-1.49,1.48-1.29,3.8.69,5.78,1.68,1.68,3.92,2.23,5.6.55a3.21,3.21,0,0,0,.56-3.75,4,4,0,0,0-.71-1Z" transform="translate(-577.64 -497.38)"/><path d="M1051.71,595.53l-7.37-7.37-1.2,1.2-1.18-1.18,1.2-1.2-.41-.41a5.73,5.73,0,0,1-2-4,4.18,4.18,0,0,1,1.29-2.88,5.2,5.2,0,0,1,1.57-1.08l1,1.41a3.18,3.18,0,0,0-1.18.79c-1.33,1.33-.5,2.83.81,4.14l.46.46,2.07-2.07,1.18,1.18-2.07,2.07,7.37,7.37Z" transform="translate(-577.64 -497.38)"/><path d="M1059.87,578.67c3.16,3.16,2.35,6.73.28,8.8-2.32,2.31-5.8,2.4-8.5-.3-2.86-2.86-2.67-6.42-.3-8.78S1057.26,576.05,1059.87,578.67Zm-6.69,6.87c1.87,1.87,4.37,2.21,5.88.69s1.2-4-.72-5.92c-1.45-1.45-4-2.56-5.85-.72S1051.55,583.92,1053.18,585.54Z" transform="translate(-577.64 -497.38)"/><path d="M1069.58,569c3.16,3.16,2.35,6.73.28,8.8-2.32,2.31-5.8,2.4-8.5-.3-2.86-2.86-2.67-6.42-.3-8.78S1067,566.35,1069.58,569Zm-6.7,6.88c1.87,1.87,4.37,2.21,5.88.69s1.2-4-.72-5.92c-1.45-1.45-4-2.56-5.85-.72S1061.25,574.21,1062.88,575.84Z" transform="translate(-577.64 -497.38)"/><path d="M1066.75,558.46l2.46,2.46,2.23-2.23,1.18,1.18-2.23,2.23,4.61,4.61c1.06,1.06,2,1.36,2.83.5a4.69,4.69,0,0,0,.79-1l1.24,1.1a5.53,5.53,0,0,1-1.17,1.59,3.08,3.08,0,0,1-2.33,1,4.5,4.5,0,0,1-2.83-1.63l-4.67-4.67-1.33,1.32-1.18-1.18,1.33-1.33-2-2Z" transform="translate(-577.64 -497.38)"/><path d="M1015.75,656.73c-1.1-1.1-2-1.94-2.86-2.72l1.4-1.4,1.54,1.4,0,0a4.74,4.74,0,0,1,1.38-4.7c2.07-2.07,5.37-1.87,8,.72,3.08,3.07,2.72,6.47.71,8.48a4.24,4.24,0,0,1-4,1.29l0,0,4.65,4.65L1025,666Zm3.82.74a5.07,5.07,0,0,0,.71.57,3.4,3.4,0,0,0,4.15-.51c1.64-1.64,1.26-3.94-.71-5.9-1.71-1.71-4.08-2.28-5.73-.64a3.51,3.51,0,0,0-.42,4.28,3.46,3.46,0,0,0,.53.74Z" transform="translate(-577.64 -497.38)"/><path d="M1019,639.88l1.56-1.56,12.55,12.55-1.56,1.56Z" transform="translate(-577.64 -497.38)"/><path d="M1040.48,643.52l-1.2-.95,0,0a4.55,4.55,0,0,1-1.34,3.89,3.44,3.44,0,0,1-5.07.16c-2.07-2.07-1.36-5,2-8.32l-.18-.18a2.49,2.49,0,0,0-3.92,0,6,6,0,0,0-1.59,2.86l-1.38-.67a7.51,7.51,0,0,1,2-3.57c2.62-2.62,5-1.47,6.75.25l3.2,3.2a17.24,17.24,0,0,0,2.19,1.91Zm-4.59-4.13c-1.73,1.66-3.36,3.89-1.7,5.55a2,2,0,0,0,3,0,3,3,0,0,0,.64-3.5,2.43,2.43,0,0,0-.41-.58Z" transform="translate(-577.64 -497.38)"/><path d="M1050,633.32a8,8,0,0,1-2,2.95c-2.58,2.58-6,2.51-8.62-.11a6.15,6.15,0,0,1,0-9.14,7.27,7.27,0,0,1,2.6-1.71l.85,1.56a5.14,5.14,0,0,0-2.21,1.4c-2,2-1.57,4.47.21,6.26,2,2,4.47,1.93,6.17.23a6.19,6.19,0,0,0,1.48-2.33Z" transform="translate(-577.64 -497.38)"/><path d="M1049,627.07c2.14,2.07,4.35,1.59,5.9,0a8.05,8.05,0,0,0,1.93-2.81l1.38.85a10,10,0,0,1-2.32,3.38c-2.63,2.63-5.94,2.47-8.52-.11s-3.09-6.13-.6-8.63c2.79-2.79,6-1.08,7.56.5a7.58,7.58,0,0,1,.67.78Zm3.45-5.68c-1-1-2.93-2.12-4.68-.37-1.57,1.57-.81,3.71.14,4.91Z" transform="translate(-577.64 -497.38)"/><path d="M1054.7,616.83c-.88-.88-1.63-1.59-2.39-2.25l1.36-1.36,1.45,1.31.05,0a4.17,4.17,0,0,1,1.11-4.26,3.59,3.59,0,0,1,4.14-.71l0,0a5,5,0,0,1-.16-2.07,4.12,4.12,0,0,1,1.29-2.49c1.13-1.13,3.55-2.07,6.52.9l5,5-1.52,1.52-4.84-4.84c-1.64-1.64-3.23-2-4.49-.78a2.84,2.84,0,0,0-.42,3.25,3.63,3.63,0,0,0,.65.9l5.28,5.28-1.52,1.52-5.13-5.13c-1.36-1.36-3-1.75-4.13-.57a3,3,0,0,0-.37,3.48,2.84,2.84,0,0,0,.64.88l5.16,5.16-1.52,1.52Z" transform="translate(-577.64 -497.38)"/><path d="M1072.55,603.47c2.14,2.07,4.35,1.59,5.9,0a8.05,8.05,0,0,0,1.93-2.81l1.38.85a10,10,0,0,1-2.32,3.38c-2.63,2.63-5.94,2.47-8.52-.11s-3.09-6.13-.6-8.63c2.79-2.79,6-1.08,7.56.5a7.58,7.58,0,0,1,.67.78Zm3.45-5.68c-1-1-2.93-2.12-4.68-.37-1.57,1.57-.81,3.71.14,4.91Z" transform="translate(-577.64 -497.38)"/><path d="M1078.3,593.23c-.88-.88-1.63-1.59-2.39-2.25l1.38-1.38,1.5,1.33,0,0a4.44,4.44,0,0,1,1.22-4.44c1.18-1.18,3.73-2.31,6.66.62l5.11,5.11-1.56,1.56-4.93-4.93c-1.38-1.38-3-2-4.51-.55a3.14,3.14,0,0,0-.49,3.68,2.85,2.85,0,0,0,.62.83l5.14,5.14-1.55,1.55Z" transform="translate(-577.64 -497.38)"/><path d="M1085.14,576.85l2.46,2.46,2.23-2.23,1.19,1.18-2.23,2.23,4.61,4.61c1.06,1.06,2,1.36,2.83.5a4.69,4.69,0,0,0,.79-1l1.24,1.1a5.53,5.53,0,0,1-1.17,1.59,3.08,3.08,0,0,1-2.33,1,4.5,4.5,0,0,1-2.83-1.63l-4.67-4.67-1.32,1.33-1.19-1.18,1.33-1.33-2-2.05Z" transform="translate(-577.64 -497.38)"/><path d="M580.94,499.72h-.05l-2.82,1.52-.43-1.67,3.55-1.9h1.87v16.25h-2.12Z" transform="translate(-577.64 -497.38)"/><path d="M599.79,505.62c0,5.52-2,8.57-5.65,8.57-3.17,0-5.32-3-5.37-8.35s2.35-8.45,5.65-8.45S599.79,500.44,599.79,505.62Zm-8.82.25c0,4.22,1.3,6.62,3.3,6.62,2.25,0,3.32-2.62,3.32-6.77s-1-6.62-3.3-6.62C592.37,499.09,591,501.44,591,505.87Z" transform="translate(-577.64 -497.38)"/><path d="M602,512.62a1.47,1.47,0,0,1,1.5-1.57,1.57,1.57,0,0,1,0,3.14A1.47,1.47,0,0,1,602,512.62Z" transform="translate(-577.64 -497.38)"/><path d="M613.79,513.92V509.5h-7.55v-1.45l7.25-10.37h2.37v10.1h2.27v1.72h-2.27v4.42Zm0-6.15v-5.42c0-.85,0-1.7.08-2.55h-.08c-.5.95-.9,1.65-1.35,2.4l-4,5.52v0Z" transform="translate(-577.64 -497.38)"/><path d="M630.36,497.67v1.45l-7.07,14.8H621l7.05-14.37v-.05h-8v-1.82h10.24Z" transform="translate(-577.64 -497.38)"/><path d="M673.94,499.72h-.05l-2.82,1.52-.43-1.67,3.55-1.9h1.87v16.25h-2.12Z" transform="translate(-577.64 -497.38)"/><path d="M692.79,505.62c0,5.52-2,8.57-5.65,8.57-3.17,0-5.32-3-5.37-8.35s2.35-8.45,5.65-8.45S692.79,500.44,692.79,505.62Zm-8.82.25c0,4.22,1.3,6.62,3.3,6.62,2.25,0,3.32-2.62,3.32-6.77s-1-6.62-3.3-6.62C685.37,499.09,684,501.44,684,505.87Z" transform="translate(-577.64 -497.38)"/><path d="M695,512.62a1.47,1.47,0,0,1,1.5-1.57,1.57,1.57,0,0,1,0,3.14A1.47,1.47,0,0,1,695,512.62Z" transform="translate(-577.64 -497.38)"/><path d="M709.69,499.52h-6.2l-.63,4.17a8.67,8.67,0,0,1,1.32-.1,6.86,6.86,0,0,1,3.5.87,4.64,4.64,0,0,1,2.32,4.17c0,3.17-2.52,5.55-6,5.55a8,8,0,0,1-4.05-1l.55-1.67a7.25,7.25,0,0,0,3.47.9,3.59,3.59,0,0,0,3.85-3.52c0-2.1-1.42-3.6-4.67-3.6a16,16,0,0,0-2.25.18l1-7.8h7.77v1.85Z" transform="translate(-577.64 -497.38)"/><path d="M719.61,513.92V509.5h-7.55v-1.45l7.25-10.37h2.37v10.1H724v1.72h-2.27v4.42Zm0-6.15v-5.42c0-.85,0-1.7.08-2.55h-.08c-.5.95-.9,1.65-1.35,2.4l-4,5.52v0Z" transform="translate(-577.64 -497.38)"/><path d="M795.94,499.72h-.05l-2.82,1.52-.43-1.67,3.55-1.9h1.87v16.25h-2.12Z" transform="translate(-577.64 -497.38)"/><path d="M808.77,499.72h0l-2.82,1.52-.42-1.67,3.55-1.9h1.87v16.25h-2.12v-14.2Z" transform="translate(-577.64 -497.38)"/><path d="M817,512.62a1.47,1.47,0,0,1,1.5-1.57,1.57,1.57,0,0,1,0,3.14A1.47,1.47,0,0,1,817,512.62Z" transform="translate(-577.64 -497.38)"/><path d="M832.79,505.62c0,5.52-2,8.57-5.65,8.57-3.17,0-5.32-3-5.37-8.35s2.35-8.45,5.65-8.45S832.79,500.44,832.79,505.62Zm-8.82.25c0,4.22,1.3,6.62,3.3,6.62,2.25,0,3.32-2.62,3.32-6.77s-1-6.62-3.3-6.62C825.37,499.09,824,501.44,824,505.87Z" transform="translate(-577.64 -497.38)"/><path d="M844.09,499.22a8.33,8.33,0,0,0-1.65.1,6.61,6.61,0,0,0-5.65,5.77h.08a4.84,4.84,0,0,1,3.92-1.87c2.87,0,4.9,2.07,4.9,5.25a5.43,5.43,0,0,1-5.4,5.72c-3.47,0-5.75-2.7-5.75-6.92a10.2,10.2,0,0,1,2.75-7.32,8.88,8.88,0,0,1,5.2-2.4,10.67,10.67,0,0,1,1.6-.13v1.8Zm-.63,9.37c0-2.32-1.32-3.72-3.35-3.72a3.62,3.62,0,0,0-3.15,2,1.85,1.85,0,0,0-.25,1c0,2.67,1.27,4.65,3.57,4.65C842.19,512.49,843.46,510.92,843.46,508.59Z" transform="translate(-577.64 -497.38)"/><path d="M886.94,499.72h-.05l-2.82,1.52-.43-1.67,3.55-1.9h1.87v16.25h-2.12Z" transform="translate(-577.64 -497.38)"/><path d="M899.77,499.72h0l-2.82,1.52-.42-1.67,3.55-1.9h1.87v16.25h-2.12v-14.2Z" transform="translate(-577.64 -497.38)"/><path d="M908,512.62a1.47,1.47,0,0,1,1.5-1.57,1.57,1.57,0,0,1,0,3.14A1.47,1.47,0,0,1,908,512.62Z" transform="translate(-577.64 -497.38)"/><path d="M917.76,499.72h0l-2.82,1.52-.42-1.67,3.55-1.9h1.87v16.25h-2.12v-14.2Z" transform="translate(-577.64 -497.38)"/><path d="M925.82,513.92v-1.35l1.72-1.67c4.15-3.95,6-6,6.05-8.5a2.89,2.89,0,0,0-3.22-3.17,5.55,5.55,0,0,0-3.45,1.37l-.7-1.55a7.13,7.13,0,0,1,4.6-1.65,4.57,4.57,0,0,1,5,4.72c0,3-2.17,5.42-5.6,8.72l-1.3,1.2v.05h7.3v1.82H925.82Z" transform="translate(-577.64 -497.38)"/><path d="M1022.94,499.72h-.05l-2.82,1.52-.42-1.67,3.55-1.9h1.87v16.25H1023v-14.2Z" transform="translate(-577.64 -497.38)"/><path d="M1035.77,499.72h0l-2.82,1.52-.42-1.67,3.55-1.9h1.88v16.25h-2.13v-14.2Z" transform="translate(-577.64 -497.38)"/><path d="M1044,512.62a1.47,1.47,0,0,1,1.5-1.57,1.57,1.57,0,0,1,0,3.14A1.47,1.47,0,0,1,1044,512.62Z" transform="translate(-577.64 -497.38)"/><path d="M1049,513.92v-1.35l1.72-1.67c4.15-3.95,6-6,6-8.5a2.89,2.89,0,0,0-3.22-3.17,5.57,5.57,0,0,0-3.45,1.37l-.7-1.55a7.13,7.13,0,0,1,4.6-1.65,4.57,4.57,0,0,1,5,4.72c0,3-2.17,5.42-5.6,8.72l-1.3,1.2v.05h7.3v1.82H1049Z" transform="translate(-577.64 -497.38)"/><path d="M1071.09,499.22a8.33,8.33,0,0,0-1.65.1,6.61,6.61,0,0,0-5.65,5.77h.08a4.87,4.87,0,0,1,3.92-1.87c2.88,0,4.9,2.07,4.9,5.25a5.43,5.43,0,0,1-5.4,5.72c-3.47,0-5.75-2.7-5.75-6.92a10.2,10.2,0,0,1,2.75-7.32,8.88,8.88,0,0,1,5.2-2.4,10.67,10.67,0,0,1,1.6-.13v1.8Zm-.63,9.37c0-2.32-1.32-3.72-3.35-3.72a3.6,3.6,0,0,0-3.15,2,1.85,1.85,0,0,0-.25,1c0,2.67,1.28,4.65,3.57,4.65C1069.19,512.49,1070.46,510.92,1070.46,508.59Z" transform="translate(-577.64 -497.38)"/><path d="M1122.94,499.72h0l-2.82,1.52-.42-1.67,3.55-1.9h1.87v16.25H1123v-14.2Z" transform="translate(-577.64 -497.38)"/><path d="M1135.77,499.72h0l-2.82,1.52-.42-1.67,3.55-1.9h1.88v16.25h-2.13v-14.2Z" transform="translate(-577.64 -497.38)"/><path d="M1144,512.62a1.47,1.47,0,0,1,1.5-1.57,1.57,1.57,0,0,1,0,3.14A1.47,1.47,0,0,1,1144,512.62Z" transform="translate(-577.64 -497.38)"/><path d="M1149.52,511.39a7.36,7.36,0,0,0,3.6,1c2.82,0,3.7-1.8,3.67-3.15,0-2.27-2.07-3.25-4.2-3.25h-1.22v-1.65h1.22c1.6,0,3.63-.82,3.63-2.75,0-1.3-.83-2.45-2.85-2.45a6.05,6.05,0,0,0-3.25,1.07l-.57-1.6a7.77,7.77,0,0,1,4.25-1.25c3.2,0,4.65,1.9,4.65,3.87a4,4,0,0,1-3,3.82v.05a4.23,4.23,0,0,1,3.62,4.17c0,2.6-2,4.87-5.92,4.87a8.18,8.18,0,0,1-4.22-1.1Z" transform="translate(-577.64 -497.38)"/><path d="M1166.59,499.72h0l-2.82,1.52-.42-1.67,3.55-1.9h1.87v16.25h-2.12v-14.2Z" transform="translate(-577.64 -497.38)"/></svg>