<svg height="512pt" viewBox="0 -15 512 512" width="512pt" xmlns="http://www.w3.org/2000/svg"><path d="m452 252c8.410156 0 16.550781 1.164062 24.277344 3.328125 9.121094-60.960937-7.226563-122.535156-46.027344-171.296875-42.492188-53.402344-106.003906-84.03125-174.25-84.03125s-131.757812 30.628906-174.25 84.027344c-38.800781 48.765625-55.148438 110.339844-46.027344 171.300781 7.726563-2.164063 15.867188-3.328125 24.277344-3.328125h5.566406c-8.242187-53.097656 5.859375-106.8125 39.660156-149.289062 36.765626-46.210938 91.722657-72.710938 150.773438-72.710938s114.007812 26.5 150.773438 72.710938c33.800781 42.476562 47.90625 96.191406 39.660156 149.289062zm0 0"/><path d="m0 342v80c0 33.085938 26.914062 60 60 60v-200c-33.085938 0-60 26.914062-60 60zm0 0"/><path d="m125 282h-35v200h35c13.785156 0 25-11.214844 25-25v-150c0-13.785156-11.214844-25-25-25zm0 0"/><path d="m452 282v200c33.085938 0 60-26.914062 60-60v-80c0-33.085938-26.914062-60-60-60zm0 0"/><path d="m362 307v150c0 13.785156 11.214844 25 25 25h35v-200h-35c-13.785156 0-25 11.214844-25 25zm0 0"/></svg>