<svg height="512pt" viewBox="-110 0 512 512" width="512pt" xmlns="http://www.w3.org/2000/svg"><path d="m274.285156 164.570312h18.285156v36.574219h-18.285156zm0 0"/><path d="m208.8125 91.429688c-3.929688-18.644532-7.667969-44.042969-7.667969-73.144532 0-10.085937-8.203125-18.285156-18.289062-18.285156h-109.710938c-10.085937 0-18.289062 8.199219-18.289062 18.285156 0 29.101563-3.738281 54.5-7.667969 73.144532zm0 0"/><path d="m274.285156 310.855469h18.285156v36.574219h-18.285156zm0 0"/><path d="m47.1875 420.570312c3.929688 18.644532 7.667969 44.042969 7.667969 73.144532 0 10.085937 8.203125 18.285156 18.289062 18.285156h109.710938c10.085937 0 18.289062-8.199219 18.289062-18.285156 0-29.101563 3.738281-54.5 7.667969-73.144532zm0 0"/><path d="m244.140625 109.714844h-232.28125c-6.539063 0-11.859375 5.320312-11.859375 11.859375v268.851562c0 6.539063 5.320312 11.859375 11.859375 11.859375h232.28125c6.539063 0 11.859375-5.320312 11.859375-11.859375v-268.851562c0-6.539063-5.320312-11.859375-11.859375-11.859375zm-152.710937 18.285156c14.9375 0 28.222656 7.257812 36.570312 18.460938 8.347656-11.203126 21.632812-18.460938 36.570312-18.460938 25.207032 0 45.714844 20.664062 45.714844 46.0625 0 3.234375-.355468 8.328125-1.132812 11.839844-9.042969 42.121094-73.371094 85.066406-76.113282 86.867187-1.527343 1.003907-3.285156 1.515625-5.039062 1.515625s-3.511719-.511718-5.039062-1.515625c-2.730469-1.800781-67.0625-44.746093-76.121094-86.941406-.761719-3.4375-1.125-8.53125-1.125-11.765625 0-25.398438 20.507812-46.0625 45.714844-46.0625zm128 228.570312h-27.429688c-3.457031 0-6.628906-1.957031-8.183594-5.054687l-2.523437-5.054687-18.550781 24.730468c-2.082032 2.789063-5.550782 4.121094-8.976563 3.511719-3.410156-.632813-6.171875-3.148437-7.132813-6.484375l-10.667968-37.339844-17.691406 47.1875c-1.28125 3.402344-4.453126 5.722656-8.082032 5.914063-.167968.011719-.320312.011719-.484375.011719-3.449219 0-6.621093-1.949219-8.183593-5.058594l-20.378907-40.765625-9.546875 14.316406c-1.699218 2.542969-4.554687 4.070313-7.605468 4.070313h-18.285157c-5.046875 0-9.144531-4.089844-9.144531-9.144532 0-5.054687 4.097656-9.144531 9.144531-9.144531h13.390625l15.570313-23.359375c1.820312-2.714844 4.894531-4.25 8.183593-4.050781 3.246094.203125 6.152344 2.121093 7.609376 5.039062l18.054687 36.105469 20.070313-53.523438c1.378906-3.683593 4.9375-6.226562 8.933593-5.914062 3.9375.164062 7.339844 2.835938 8.417969 6.628906l13.230469 46.289063 16.382812-21.839844c1.902344-2.542969 5.003907-3.941406 8.136719-3.621094 3.15625.28125 5.945312 2.183594 7.363281 5.019531l6.617188 13.226563h21.777343c5.046876 0 9.144532 4.089844 9.144532 9.144531 0 5.054688-4.113282 9.160156-9.160156 9.160156zm0 0"/><path d="m128 254.042969c19.472656-13.859375 57.617188-45.613281 63.285156-72.054688.386719-1.738281.714844-5.414062.714844-7.925781 0-15.316406-12.304688-27.777344-27.429688-27.777344-15.121093 0-27.425781 12.460938-27.425781 27.777344 0 5.054688-4.097656 9.140625-9.144531 9.140625s-9.144531-4.085937-9.144531-9.140625c0-15.316406-12.304688-27.777344-27.425781-27.777344-15.125 0-27.429688 12.460938-27.429688 27.777344 0 2.511719.328125 6.1875.703125 7.851562 5.6875 26.507813 43.824219 58.277344 63.296875 72.128907zm0 0"/></svg>